<svg viewBox="0 0 500.000000 500.000000">
<circle cx="300" cy="200" r="150"/>
<rect x="20.000000" y="60.000000" width="100.000000" height="200.000000" rx="50.000000" ry="50.000000"/>
<polyline points="5.000000,0.000000 10.000000,1.000000 15.000000,4.000000 20.000000,9.000000 25.000000,16.000000 30.000000,25.000000 35.000000,36.000000 40.000000,49.000000 45.000000,64.000000 50.000000,81.000000 55.000000,100.000000 60.000000,121.000000 65.000000,144.000000 70.000000,169.000000 75.000000,196.000000 80.000000,225.000000 85.000000,256.000000 90.000000,289.000000 95.000000,324.000000 100.000000,361.000000 105.000000,400.000000 110.000000,441.000000 115.000000,484.000000 120.000000,529.000000 125.000000,576.000000 130.000000,625.000000 135.000000,676.000000 140.000000,729.000000 145.000000,784.000000 150.000000,841.000000 " style="fill:none;stroke:red;stroke-width:5"/>
<text x="50.000000" y="50.000000" style="fill:blue;font-size:40">
Hello world!
</text
></svg>
